<svg width="65" height="65" viewBox="0 0 65 65" fill="none" xmlns="http://www.w3.org/2000/svg">
<g clip-path="url(#clip0_4_3)">
<path d="M59.5833 11.5556L52.9028 4.87501C52.3286 4.32752 51.5656 4.02209 50.7722 4.02209C49.9788 4.02209 49.2159 4.32752 48.6417 4.87501L42.7014 10.8333H10.8333C9.87561 10.8333 8.95711 11.2138 8.2799 11.891C7.60268 12.5682 7.22223 13.4867 7.22223 14.4445V54.1667C7.22223 55.1244 7.60268 56.0429 8.2799 56.7201C8.95711 57.3973 9.87561 57.7778 10.8333 57.7778H50.5556C51.5133 57.7778 52.4318 57.3973 53.109 56.7201C53.7862 56.0429 54.1667 55.1244 54.1667 54.1667V21.2333L59.5833 15.8167C60.1479 15.2513 60.4649 14.4851 60.4649 13.6861C60.4649 12.8872 60.1479 12.1209 59.5833 11.5556ZM33.9986 36.3458L26.4333 38.025L28.2389 30.5319L45.482 13.2528L51.3139 19.0847L33.9986 36.3458ZM53.2639 17.0264L47.432 11.1944L50.7722 7.85417L56.6042 13.6861L53.2639 17.0264Z" fill="#498479"/>
</g>
<defs>
<clipPath id="clip0_4_3">
<rect width="65" height="65" fill="white"/>
</clipPath>
</defs>
</svg>
